<svg xmlns="http://www.w3.org/2000/svg" xmlns:xlink="http://www.w3.org/1999/xlink" width="40" zoomAndPan="magnify" viewBox="0 0 30 30.000001" height="40" preserveAspectRatio="xMidYMid meet" version="1.0"><defs><clipPath id="id1"><path d="M 1.449219 5.925781 L 28.304688 5.925781 L 28.304688 24.796875 L 1.449219 24.796875 Z M 1.449219 5.925781 " clip-rule="nonzero"/></clipPath></defs><g clip-path="url(#id1)"><path fill="rgb(85.099792%, 85.099792%, 85.099792%)" d="M 17.5625 11.316406 L 1.453125 11.316406 L 1.453125 14.015625 L 17.5625 14.015625 Z M 17.5625 5.925781 L 1.453125 5.925781 L 1.453125 8.621094 L 17.5625 8.621094 Z M 22.933594 16.710938 L 22.933594 11.316406 L 20.246094 11.316406 L 20.246094 16.710938 L 14.878906 16.710938 L 14.878906 19.40625 L 20.246094 19.40625 L 20.246094 24.796875 L 22.933594 24.796875 L 22.933594 19.40625 L 28.300781 19.40625 L 28.300781 16.710938 Z M 1.453125 19.40625 L 12.191406 19.40625 L 12.191406 16.710938 L 1.453125 16.710938 Z M 1.453125 19.40625 " fill-opacity="1" fill-rule="nonzero"/></g></svg>